<!--?xml version="1.0" standalone="no"?-->

<svg version="1.0" xmlns="http://www.w3.org/2000/svg" width="300.000000pt" height="271.000000pt" viewBox="0 0 300.000000 271.000000" preserveAspectRatio="xMidYMid meet">
<g transform="translate(0.000000,271.000000) scale(0.100000,-0.100000)" fill="#252123" stroke="none">

<path class="node" id="node2" d="M2895 2693 c-128 -5 -368 -34 -515 -63 -198 -40 -338 -87 -516 -176
-85 -42 -158 -72 -166 -69 -9 4 -24 24 -34 47 -16 36 -19 38 -26 19 -4 -12 -9
-52 -10 -90 -2 -44 -6 -67 -12 -61 -17 17 -26 11 -26 -18 0 -40 -48 -84 -94
-85 -29 -1 -44 7 -74 35 -47 45 -69 52 -125 37 -58 -14 -105 0 -159 49 -39 36
-39 36 -80 21 -42 -16 -51 -32 -19 -37 16 -3 18 -9 14 -43 -6 -44 8 -52 25
-14 6 14 18 25 25 25 20 0 95 -68 113 -101 15 -30 15 -30 -21 -45 -31 -13 -48
-13 -111 -3 -77 13 -95 9 -78 -19 12 -19 38 -26 142 -40 42 -6 93 -21 122 -36
27 -14 58 -26 68 -26 35 0 57 -38 57 -94 -1 -52 -3 -57 -104 -251 -22 -43 -26
-62 -26 -140 0 -107 21 -173 76 -240 54 -66 83 -180 76 -299 -10 -153 -61
-216 -175 -216 -29 0 -66 -7 -81 -15 -36 -18 -58 -67 -44 -98 10 -22 10 -22
17 -1 3 11 18 27 31 34 21 11 29 11 50 0 22 -12 34 -11 95 9 65 22 72 22 95 7
13 -9 32 -16 41 -16 9 0 18 -9 21 -20 6 -22 29 -27 36 -7 3 7 6 5 6 -5 1 -22
8 -23 27 -3 9 8 22 15 29 15 12 0 11 -5 -1 -27 -29 -57 -10 -90 25 -43 31 42
54 40 46 -4 -7 -37 10 -59 20 -26 8 27 71 62 193 110 77 30 109 38 136 33 26
-4 36 -11 36 -24 0 -26 18 -24 31 4 8 18 7 33 -5 62 -9 20 -16 39 -16 40 0 1
25 5 56 9 30 3 71 13 91 21 54 23 190 20 255 -5 104 -40 137 -118 76 -177 -67
-65 -210 -102 -491 -128 -260 -24 -429 -68 -534 -139 -41 -28 -73 -32 -122
-15 -26 9 -36 8 -57 -6 -25 -16 -26 -19 -22 -106 1 -49 -1 -89 -5 -89 -5 0 -2
-6 5 -14 8 -7 20 -39 27 -70 7 -31 16 -56 21 -56 5 0 19 15 31 32 13 18 27 35
31 36 4 2 8 17 8 33 0 25 4 29 28 29 16 0 37 9 47 20 10 11 26 22 36 25 11 4
24 16 30 27 9 17 6 25 -21 53 l-31 32 38 16 c106 42 148 48 378 57 405 15 505
26 644 66 191 55 292 174 262 309 -18 79 -66 128 -195 198 -121 66 -243 147
-361 238 -89 69 -131 90 -255 126 -87 26 -145 52 -191 86 -27 19 -96 153 -86
164 9 8 139 -18 164 -34 32 -19 36 -17 56 26 43 94 120 151 201 151 45 -1 102
-9 145 -21 9 -3 24 30 50 107 64 197 135 271 268 282 l66 5 -9 76 c-24 209 -3
304 85 391 59 58 151 117 201 127 35 6 64 34 34 31 -11 -1 -50 -3 -89 -5z
m-1188 -575 c30 -86 41 -227 24 -309 -8 -39 -23 -69 -48 -98 -34 -40 -36 -41
-54 -25 -24 21 -49 103 -49 158 0 39 -21 154 -35 187 -5 14 4 17 54 23 68 8
80 26 31 46 -35 14 -36 17 -14 41 9 10 19 39 22 65 l5 46 19 -31 c11 -17 31
-63 45 -103z m-331 77 c10 -8 15 -14 9 -14 -5 0 -19 6 -29 14 -11 8 -15 15
-10 15 6 0 19 -7 30 -15z m237 -1094 c32 -29 33 -31 29 -94 -2 -38 1 -73 7
-86 7 -12 50 -47 97 -78 65 -42 82 -58 71 -64 -24 -14 -154 -39 -200 -39 -31
0 -48 -7 -70 -27 -28 -27 -30 -27 -41 -9 -6 10 -21 30 -34 44 -26 30 -25 57 3
57 12 0 21 -9 26 -25 l6 -25 13 27 c11 23 10 32 -5 64 -23 48 -15 100 23 156
38 55 46 82 32 108 -16 29 3 25 43 -9z m-235 -989 c3 -22 -13 -52 -27 -52 -3
0 -14 7 -25 15 -13 10 -17 21 -12 40 5 21 12 26 34 23 19 -2 28 -9 30 -26z"></path>

<path class="node" id="node4" d="M255 2658 c-50 -12 -123 -21 -162 -22 -40 -1 -73 -4 -73 -8 0 -4 10
-19 23 -33 18 -22 37 -28 113 -40 107 -15 135 -31 164 -89 34 -72 61 -90 138
-94 95 -5 134 -24 177 -89 48 -72 69 -79 170 -59 100 20 129 20 160 0 17 -11
25 -12 25 -5 0 27 -33 72 -85 116 -43 37 -64 66 -95 130 -56 119 -83 133 -182
95 -90 -34 -126 -25 -152 39 -29 75 -87 90 -221 59z"></path>





</g>
<g transform="translate(0.000000,271.000000) scale(0.100000,-0.100000)" fill="#FFFFFF" stroke="none">

<path class="node" id="node11" d="M1638 2206 c-3 -26 -13 -55 -22 -65 -22 -24 -21 -27 14 -41 49 -20
37 -38 -31 -46 -50 -6 -59 -9 -54 -23 14 -33 35 -148 35 -187 0 -55 25 -137
49 -158 18 -16 20 -15 54 25 46 53 61 123 54 245 -5 94 -37 205 -75 265 l-19
31 -5 -46z"></path>
<path class="node" id="node12" d="M1356 2195 c10 -8 24 -14 29 -14 6 0 1 6 -9 14 -11 8 -24 15 -30 15
-5 0 -1 -7 10 -15z"></path>

<path class="node" id="node14" d="M1314 115 c-5 -19 -1 -30 12 -40 24 -18 29 -18 44 -1 20 26 8 61 -22
64 -22 3 -29 -2 -34 -23z m54 -8 c4 -20 -25 -34 -40 -19 -15 15 -1 44 19 40
10 -2 19 -11 21 -21z"></path>
</g>
</svg>