<?xml version="1.0" standalone="no"?>
<!DOCTYPE svg PUBLIC "-//W3C//DTD SVG 20010904//EN"
 "http://www.w3.org/TR/2001/REC-SVG-20010904/DTD/svg10.dtd">
<svg version="1.0" xmlns="http://www.w3.org/2000/svg"
 width="756.000000pt" height="756.000000pt" viewBox="0 0 756.000000 756.000000"
 preserveAspectRatio="xMidYMid meet">
<metadata>
Created by potrace 1.11, written by Peter Selinger 2001-2013
</metadata>
<g transform="translate(0.000000,756.000000) scale(0.100000,-0.100000)"
fill="#000000" stroke="none">
<path d="M2533 5985 l-743 -1568 706 -1501 c389 -825 717 -1521 731 -1546 l24
-45 -5 365 c-5 335 -17 613 -32 749 l-6 54 -25 -31 c-13 -18 -28 -32 -33 -32
-4 0 -25 24 -46 53 -20 28 -80 103 -133 166 -53 62 -105 125 -117 140 -21 26
-21 26 -3 131 10 58 23 218 30 357 12 247 13 252 34 257 32 8 109 -17 151 -49
65 -49 166 -212 205 -330 l13 -40 7 30 c4 17 7 90 8 163 l1 132 28 -6 c224
-50 409 -348 527 -847 l28 -119 -25 -52 c-15 -29 -92 -157 -173 -284 -80 -128
-159 -257 -175 -287 -34 -65 -40 -39 64 -274 41 -92 77 -178 80 -193 5 -22
-12 -54 -104 -192 -60 -91 -122 -191 -137 -221 l-28 -56 23 -65 c53 -152 371
-839 383 -827 4 4 98 195 207 423 l199 415 -20 23 c-36 39 -38 38 -237 -128
-156 -129 -170 -140 -191 -140 -22 0 -110 108 -168 206 -63 107 -62 109 79
323 66 100 129 199 139 220 25 48 20 71 -56 271 l-56 149 43 73 c24 40 102
161 174 268 72 107 147 220 166 250 l34 55 4 448 4 448 25 30 c30 35 108 83
126 76 7 -2 23 -55 36 -116 14 -61 27 -111 30 -111 4 0 17 29 29 65 81 224
263 340 395 251 20 -13 33 -32 35 -48 3 -27 -1 -30 -64 -43 -31 -6 -32 -8 -37
-68 -11 -145 29 -335 93 -439 l29 -47 -187 -245 -186 -244 -49 25 -50 25 6
-249 c3 -159 10 -266 19 -298 12 -47 15 -50 44 -49 39 2 156 39 213 67 l44 22
239 525 c304 668 682 1510 788 1755 62 144 81 197 77 220 -3 17 -135 307 -292
645 -722 1547 -940 2020 -1031 2235 -45 109 -86 165 -119 165 -33 0 -38 -23
-39 -178 -1 -85 -5 -135 -12 -140 -18 -11 -34 -48 -34 -77 0 -22 3 -24 19 -15
23 12 90 13 108 2 9 -6 353 -1577 353 -1614 0 -7 -14 -21 -30 -30 -16 -9 -38
-31 -49 -48 -21 -35 -36 -128 -26 -161 7 -21 7 -21 32 3 20 19 35 23 81 22 31
0 66 -5 77 -11 17 -10 37 -79 119 -413 l99 -402 -24 -23 c-35 -34 -137 -94
-183 -106 -56 -15 -139 -13 -195 6 -71 23 -141 71 -141 95 0 57 63 181 129
254 l26 29 -47 -5 c-25 -3 -68 -16 -94 -29 -65 -31 -183 -149 -226 -227 -19
-34 -38 -59 -41 -55 -10 10 -8 133 2 171 5 17 8 32 5 32 -29 0 -116 -106 -165
-200 l-23 -45 -15 40 c-8 22 -45 101 -82 175 -67 134 -68 136 -179 240 -62 57
-118 117 -125 133 -41 97 66 202 342 338 113 55 156 82 208 131 177 165 199
439 46 596 -76 78 -209 149 -345 183 l-48 12 78 40 c52 27 100 63 142 104 62
63 78 92 45 78 -48 -19 -210 -46 -309 -52 -149 -8 -178 2 -210 72 -25 54 -53
211 -55 305 l-1 55 -19 -42 c-26 -56 -40 -204 -32 -334 6 -106 6 -106 -24
-150 -40 -59 -60 -112 -68 -184 -8 -65 -21 -96 -66 -158 -34 -47 -38 -106 -13
-179 19 -57 45 -82 77 -74 25 6 48 48 67 123 17 67 67 123 144 163 59 30 78
35 159 38 179 8 311 -63 381 -204 45 -91 29 -150 -66 -241 -69 -64 -127 -94
-250 -127 -118 -31 -181 -61 -275 -132 -78 -60 -129 -117 -165 -185 -31 -58
-36 -182 -13 -305 13 -73 62 -263 83 -324 3 -8 -14 4 -37 28 -47 48 -118 98
-127 89 -3 -3 -1 -14 5 -25 6 -12 11 -40 11 -64 l0 -43 -79 76 c-89 87 -194
145 -276 155 l-50 5 25 -20 c101 -85 139 -147 147 -240 l6 -59 -50 -16 c-28
-9 -78 -21 -112 -27 -130 -20 -278 35 -348 129 l-22 30 103 388 c102 384 103
389 130 392 34 4 131 -24 176 -51 19 -11 57 -39 84 -61 l48 -40 -7 35 c-21 99
-94 205 -192 277 -41 31 -61 52 -58 62 3 8 90 364 195 790 105 426 193 783
196 793 7 24 69 23 117 -3 31 -17 37 -18 37 -5 0 25 -29 77 -62 112 l-30 31
-7 187 -6 188 -742 -1568z"/>
</g>
</svg>
